<svg width="24" height="24" viewBox="0 0 24 24" fill="none" xmlns="http://www.w3.org/2000/svg">
<path d="M10.875 11.9999C10.875 12.2224 10.941 12.4399 11.0646 12.6249C11.1882 12.8099 11.3639 12.9541 11.5695 13.0393C11.775 13.1244 12.0012 13.1467 12.2195 13.1033C12.4377 13.0599 12.6382 12.9527 12.7955 12.7954C12.9528 12.6381 13.06 12.4376 13.1034 12.2194C13.1468 12.0012 13.1245 11.775 13.0394 11.5694C12.9542 11.3638 12.81 11.1881 12.625 11.0645C12.44 10.9409 12.2225 10.8749 12 10.8749C11.7016 10.8749 11.4155 10.9934 11.2045 11.2044C10.9935 11.4154 10.875 11.7015 10.875 11.9999ZM16.125 10.8749C16.3475 10.8749 16.565 10.9409 16.75 11.0645C16.935 11.1881 17.0792 11.3638 17.1644 11.5694C17.2495 11.775 17.2718 12.0012 17.2284 12.2194C17.185 12.4376 17.0778 12.6381 16.9205 12.7954C16.7632 12.9527 16.5627 13.0599 16.3445 13.1033C16.1262 13.1467 15.9 13.1244 15.6945 13.0393C15.4889 12.9541 15.3132 12.8099 15.1896 12.6249C15.066 12.4399 15 12.2224 15 11.9999C15 11.7015 15.1185 11.4154 15.3295 11.2044C15.5405 10.9934 15.8266 10.8749 16.125 10.8749ZM7.875 10.8749C8.0975 10.8749 8.31501 10.9409 8.50002 11.0645C8.68502 11.1881 8.82922 11.3638 8.91436 11.5694C8.99951 11.775 9.02179 12.0012 8.97838 12.2194C8.93498 12.4376 8.82783 12.6381 8.67049 12.7954C8.51316 12.9527 8.31271 13.0599 8.09448 13.1033C7.87625 13.1467 7.65005 13.1244 7.44448 13.0393C7.23892 12.9541 7.06321 12.8099 6.9396 12.6249C6.81598 12.4399 6.75 12.2224 6.75 11.9999C6.75 11.7015 6.86853 11.4154 7.07951 11.2044C7.29048 10.9934 7.57663 10.8749 7.875 10.8749ZM2.25 11.9999C2.24963 13.6832 2.68508 15.338 3.51396 16.803C4.34285 18.2681 5.53692 19.4937 6.97997 20.3604C8.42301 21.2271 10.0659 21.7054 11.7486 21.7488C13.4314 21.7922 15.0967 21.3992 16.5825 20.608L19.7747 21.6721C20.039 21.7602 20.3226 21.773 20.5938 21.709C20.8649 21.645 21.1129 21.5068 21.3099 21.3098C21.5069 21.1128 21.6451 20.8648 21.7091 20.5937C21.7731 20.3225 21.7603 20.0389 21.6722 19.7746L20.6081 16.5824C21.3036 15.2748 21.6921 13.826 21.744 12.3458C21.7959 10.8657 21.51 9.39316 20.9079 8.04003C20.3058 6.6869 19.4033 5.48873 18.269 4.53646C17.1346 3.58419 15.7983 2.90285 14.3613 2.54416C12.9244 2.18548 11.4246 2.15886 9.97578 2.46635C8.52701 2.77383 7.16731 3.40733 5.99992 4.31875C4.83253 5.23018 3.88811 6.39558 3.23836 7.7265C2.58861 9.05741 2.25061 10.5189 2.25 11.9999ZM3.75 11.9999C3.75036 10.7344 4.04185 9.48593 4.60192 8.3511C5.16198 7.21627 5.97561 6.2255 6.97986 5.45544C7.98411 4.68537 9.15205 4.15666 10.3933 3.91021C11.6346 3.66375 12.916 3.70616 14.1382 4.03415C15.3605 4.36215 16.4909 4.96693 17.442 5.80171C18.3932 6.6365 19.1395 7.6789 19.6233 8.84828C20.1071 10.0177 20.3154 11.2827 20.2321 12.5454C20.1488 13.8082 19.7761 15.0349 19.1428 16.1305C19.0897 16.2225 19.0567 16.3247 19.046 16.4304C19.0353 16.5361 19.0472 16.6429 19.0809 16.7437L20.25 20.2499L16.7438 19.0808C16.6674 19.0548 16.5872 19.0415 16.5066 19.0415C16.3748 19.0417 16.2455 19.0766 16.1316 19.1427C14.8774 19.8684 13.4542 20.2509 12.0052 20.2518C10.5562 20.2527 9.13257 19.872 7.87746 19.1479C6.62236 18.4239 5.58009 17.382 4.85553 16.1272C4.13096 14.8724 3.74967 13.4489 3.75 11.9999Z" 
/>
</svg>
