<svg width="48" height="48" viewBox="0 0 26 28" fill="none" xmlns="http://www.w3.org/2000/svg">
<path d="M9.63867 7.14453H8.61328V12.5996H6.42578V0.71875H8.61328V4.84766H9.63867V0.664062H12.0996V12.6543H9.63867V7.14453ZM0.615234 7.30859C0.615234 6.2513 0.669922 5.14844 0.779297 4C0.897786 2.84245 1.04818 1.82161 1.23047 0.9375H3.82812C3.41797 2.77865 3.21289 4.75651 3.21289 6.87109C3.21289 7.69141 3.25846 8.3112 3.34961 8.73047C3.44987 9.14062 3.60026 9.41862 3.80078 9.56445C4.01042 9.71029 4.30664 9.7832 4.68945 9.7832C5.09961 9.7832 5.54622 9.73307 6.0293 9.63281L6.09766 11.998C5.91536 12.0618 5.66927 12.112 5.35938 12.1484C5.04948 12.194 4.75326 12.2168 4.4707 12.2168C3.5957 12.2168 2.87565 12.0527 2.31055 11.7246C1.74544 11.4056 1.32161 10.8906 1.03906 10.1797C0.75651 9.45964 0.615234 8.5026 0.615234 7.30859ZM22.4902 7.28125H21.1914C21.0456 9.25 20.7357 10.9271 20.2617 12.3125L17.8008 11.875C18.1198 10.9818 18.3659 9.96549 18.5391 8.82617C18.7214 7.68685 18.8125 6.46549 18.8125 5.16211V3.19336H17.9922V0.9375H21.2734V4.47852V4.98438H22.4902V0.664062H25.2246V12.6543H22.4902V7.28125ZM13.877 0.9375H17.7188V4.47852C17.7188 6.0918 17.623 7.54102 17.4316 8.82617C17.2493 10.1113 16.9486 11.2734 16.5293 12.3125L14.1094 11.7383C14.474 10.8633 14.7565 9.86979 14.957 8.75781C15.1576 7.63672 15.2578 6.43815 15.2578 5.16211V3.19336H13.877V0.9375ZM9.36523 15.6641H12.0996V27.6543H9.36523V15.6641ZM0.751953 22.582C0.751953 21.4883 0.820312 20.3398 0.957031 19.1367C1.10286 17.9336 1.28516 16.8672 1.50391 15.9375H4.375C3.8737 17.9245 3.62305 20.0391 3.62305 22.2812C3.62305 22.9102 3.68229 23.4069 3.80078 23.7715C3.92839 24.1361 4.12891 24.3958 4.40234 24.5508C4.67578 24.7057 5.04492 24.7832 5.50977 24.7832C6.01107 24.7832 6.47591 24.7422 6.9043 24.6602C7.33268 24.5781 7.77018 24.4551 8.2168 24.291L8.66797 26.6152C8.33073 26.7884 7.87956 26.9297 7.31445 27.0391C6.75846 27.1576 6.2207 27.2168 5.70117 27.2168C4.57096 27.2168 3.64583 27.0618 2.92578 26.752C2.20573 26.4512 1.66341 25.9635 1.29883 25.2891C0.934245 24.6055 0.751953 23.7031 0.751953 22.582ZM22.4902 22.2812H21.1914C21.0456 24.25 20.7357 25.9271 20.2617 27.3125L17.8008 26.875C18.1198 25.9818 18.3659 24.9655 18.5391 23.8262C18.7214 22.6868 18.8125 21.4655 18.8125 20.1621V18.1934H17.9922V15.9375H21.2734V19.4785V19.9844H22.4902V15.6641H25.2246V27.6543H22.4902V22.2812ZM13.877 15.9375H17.7188V19.4785C17.7188 21.0918 17.623 22.541 17.4316 23.8262C17.2493 25.1113 16.9486 26.2734 16.5293 27.3125L14.1094 26.7383C14.474 25.8633 14.7565 24.8698 14.957 23.7578C15.1576 22.6367 15.2578 21.4382 15.2578 20.1621V18.1934H13.877V15.9375Z" fill="#873EAC"/>
</svg>
