<svg width="147" height="35" viewBox="0 0 147 35" fill="none" xmlns="http://www.w3.org/2000/svg">
<path d="M26.5391 18.9844H23.6094V34.5703H17.3594V0.625H23.6094V12.4219H26.5391V0.46875H33.5703V34.7266H26.5391V18.9844ZM0.757812 19.4531C0.757812 16.4323 0.914062 13.2812 1.22656 10C1.5651 6.69271 1.99479 3.77604 2.51562 1.25H9.9375C8.76562 6.51042 8.17969 12.1615 8.17969 18.2031C8.17969 20.5469 8.3099 22.3177 8.57031 23.5156C8.85677 24.6875 9.28646 25.4818 9.85938 25.8984C10.4583 26.3151 11.3047 26.5234 12.3984 26.5234C13.5703 26.5234 14.8464 26.3802 16.2266 26.0938L16.4219 32.8516C15.901 33.0339 15.1979 33.1771 14.3125 33.2812C13.4271 33.4115 12.5807 33.4766 11.7734 33.4766C9.27344 33.4766 7.21615 33.0078 5.60156 32.0703C3.98698 31.1589 2.77604 29.6875 1.96875 27.6562C1.16146 25.599 0.757812 22.8646 0.757812 19.4531ZM63.2578 19.375H59.5469C59.1302 25 58.2448 29.7917 56.8906 33.75L49.8594 32.5C50.7708 29.9479 51.474 27.0443 51.9688 23.7891C52.4896 20.5339 52.75 17.0443 52.75 13.3203V7.69531H50.4062V1.25H59.7812V11.3672V12.8125H63.2578V0.46875H71.0703V34.7266H63.2578V19.375ZM38.6484 1.25H49.625V11.3672C49.625 15.9766 49.3516 20.1172 48.8047 23.7891C48.2839 27.4609 47.4245 30.7812 46.2266 33.75L39.3125 32.1094C40.3542 29.6094 41.1615 26.7708 41.7344 23.5938C42.3073 20.3906 42.5938 16.9661 42.5938 13.3203V7.69531H38.6484V1.25ZM100.758 0.46875H108.57V34.7266H100.758V0.46875ZM76.1484 20.2344C76.1484 17.1094 76.3438 13.8281 76.7344 10.3906C77.151 6.95312 77.6719 3.90625 78.2969 1.25H86.5C85.0677 6.92708 84.3516 12.9688 84.3516 19.375C84.3516 21.1719 84.5208 22.5911 84.8594 23.6328C85.224 24.6745 85.7969 25.4167 86.5781 25.8594C87.3594 26.3021 88.4141 26.5234 89.7422 26.5234C91.1745 26.5234 92.5026 26.4062 93.7266 26.1719C94.9505 25.9375 96.2005 25.5859 97.4766 25.1172L98.7656 31.7578C97.8021 32.2526 96.513 32.6562 94.8984 32.9688C93.3099 33.3073 91.7734 33.4766 90.2891 33.4766C87.0599 33.4766 84.4167 33.0339 82.3594 32.1484C80.3021 31.2891 78.7526 29.8958 77.7109 27.9688C76.6693 26.0156 76.1484 23.4375 76.1484 20.2344ZM138.258 19.375H134.547C134.13 25 133.245 29.7917 131.891 33.75L124.859 32.5C125.771 29.9479 126.474 27.0443 126.969 23.7891C127.49 20.5339 127.75 17.0443 127.75 13.3203V7.69531H125.406V1.25H134.781V11.3672V12.8125H138.258V0.46875H146.07V34.7266H138.258V19.375ZM113.648 1.25H124.625V11.3672C124.625 15.9766 124.352 20.1172 123.805 23.7891C123.284 27.4609 122.424 30.7812 121.227 33.75L114.312 32.1094C115.354 29.6094 116.161 26.7708 116.734 23.5938C117.307 20.3906 117.594 16.9661 117.594 13.3203V7.69531H113.648V1.25Z" fill="#873EAC"/>
</svg>
