<svg width="19" height="19" viewBox="0 0 19 19"  xmlns="http://www.w3.org/2000/svg">
<path d="M6.89583 0.125C8.69157 0.125 10.4138 0.838353 11.6835 2.10813C12.9533 3.37791 13.6667 5.1001 13.6667 6.89583C13.6667 8.57292 13.0521 10.1146 12.0417 11.3021L12.3229 11.5833H13.1458L18.3542 16.7917L16.7917 18.3542L11.5833 13.1458V12.3229L11.3021 12.0417C10.0735 13.0904 8.51115 13.6666 6.89583 13.6667C5.1001 13.6667 3.37791 12.9533 2.10813 11.6835C0.838353 10.4138 0.125 8.69157 0.125 6.89583C0.125 5.1001 0.838353 3.37791 2.10813 2.10813C3.37791 0.838353 5.1001 0.125 6.89583 0.125ZM6.89583 2.20833C4.29167 2.20833 2.20833 4.29167 2.20833 6.89583C2.20833 9.5 4.29167 11.5833 6.89583 11.5833C9.5 11.5833 11.5833 9.5 11.5833 6.89583C11.5833 4.29167 9.5 2.20833 6.89583 2.20833Z" 
fill-opacity="0.5"/>
</svg>
