<svg width="24" height="25" viewBox="0 0 24 25" fill="none" xmlns="http://www.w3.org/2000/svg">
<path fill-rule="evenodd" clip-rule="evenodd" d="M10.6157 1.84621C5.77243 1.84621 1.84621 5.77244 1.84621 10.6157C1.84621 15.4589 5.77243 19.3852 10.6157 19.3852C15.4589 19.3852 19.3852 15.4589 19.3852 10.6157C19.3852 5.77244 15.4589 1.84621 10.6157 1.84621ZM0 10.6157C0 4.7528 4.7528 0 10.6157 0C16.4786 0 21.2314 4.7528 21.2314 10.6157C21.2314 16.4786 16.4786 21.2314 10.6157 21.2314C4.7528 21.2314 0 16.4786 0 10.6157Z" 
fill="currentColor"/>
<path fill-rule="evenodd" clip-rule="evenodd" d="M16.816 17.8172C17.1765 17.4568 17.761 17.4568 18.1215 17.8172L23.7294 23.4252C24.0899 23.7857 24.0899 24.3701 23.7294 24.7306C23.3689 25.0911 22.7844 25.0911 22.4239 24.7306L16.816 19.1227C16.4555 18.7622 16.4555 18.1777 16.816 17.8172Z" 
fill="currentColor"/>
</svg>
