<svg width="24" height="24" viewBox="0 0 24 24" fill="none" xmlns="http://www.w3.org/2000/svg">
<path fill-rule="evenodd" clip-rule="evenodd" d="M12.0001 3.75C7.44377 3.75 3.75012 7.44365 3.75012 12C3.75012 16.5563 7.44377 20.25 12.0001 20.25C16.5565 20.25 20.2501 16.5563 20.2501 12C20.2501 7.44365 16.5565 3.75 12.0001 3.75ZM2.25012 12C2.25012 6.61522 6.61535 2.25 12.0001 2.25C17.3849 2.25 21.7501 6.61522 21.7501 12C21.7501 17.3848 17.3849 21.75 12.0001 21.75C6.61535 21.75 2.25012 17.3848 2.25012 12Z" fill="#111112"/>
<path fill-rule="evenodd" clip-rule="evenodd" d="M10.5 11.25C10.5 10.8358 10.8358 10.5 11.25 10.5H12.0001C12.199 10.5 12.3898 10.579 12.5304 10.7197C12.6711 10.8603 12.7501 11.0511 12.7501 11.25L12.75 15.75C13.1642 15.75 13.5 16.0858 13.5 16.5C13.5 16.9142 13.1642 17.25 12.75 17.25H12C11.8011 17.25 11.6103 17.171 11.4697 17.0303C11.329 16.8897 11.25 16.6989 11.25 16.5L11.2501 12H11.25C10.8358 12 10.5 11.6642 10.5 11.25Z" fill="#111112"/>
<path d="M12 8.8125C12.5178 8.8125 12.9375 8.39277 12.9375 7.875C12.9375 7.35723 12.5178 6.9375 12 6.9375C11.4822 6.9375 11.0625 7.35723 11.0625 7.875C11.0625 8.39277 11.4822 8.8125 12 8.8125Z" fill="#111112"/>
</svg>
