<svg width="24" height="25" viewBox="0 0 24 25" fill="none" xmlns="http://www.w3.org/2000/svg">
<path fill-rule="evenodd" clip-rule="evenodd" d="M8.37541 3.44521C8.51451 3.2296 8.74869 3.1001 8.99945 3.1001H14.9995C15.2502 3.1001 15.4844 3.2296 15.6235 3.44521L16.9008 5.4251H19.5C20.0967 5.4251 20.669 5.67005 21.091 6.10607C21.5129 6.5421 21.75 7.13347 21.75 7.7501V18.6001C21.75 19.2167 21.5129 19.8081 21.091 20.2441C20.669 20.6801 20.0967 20.9251 19.5 20.9251H4.5C3.90326 20.9251 3.33097 20.6801 2.90901 20.2441C2.48705 19.8081 2.25 19.2167 2.25 18.6001V7.7501C2.25 7.13347 2.48705 6.5421 2.90901 6.10607C3.33097 5.67005 3.90326 5.4251 4.5 5.4251H7.09806L8.37541 3.44521ZM9.40084 4.6501L8.12349 6.62999C7.98439 6.84559 7.75022 6.9751 7.49945 6.9751H4.5C4.30109 6.9751 4.11032 7.05675 3.96967 7.20209C3.82902 7.34743 3.75 7.54456 3.75 7.7501V18.6001C3.75 18.8056 3.82902 19.0028 3.96967 19.1481C4.11032 19.2934 4.30109 19.3751 4.5 19.3751H19.5C19.6989 19.3751 19.8897 19.2934 20.0303 19.1481C20.171 19.0028 20.25 18.8056 20.25 18.6001V7.7501C20.25 7.54456 20.171 7.34743 20.0303 7.20209C19.8897 7.05675 19.6989 6.9751 19.5 6.9751H16.4995C16.2487 6.9751 16.0145 6.84559 15.8754 6.62999L14.5981 4.6501H9.40084Z" fill="#070707" fill-opacity="0.43"/>
<path fill-rule="evenodd" clip-rule="evenodd" d="M12 10.0749C10.5503 10.0749 9.375 11.2893 9.375 12.7874C9.375 14.2855 10.5503 15.4999 12 15.4999C13.4497 15.4999 14.625 14.2855 14.625 12.7874C14.625 11.2893 13.4497 10.0749 12 10.0749ZM7.875 12.7874C7.875 10.4333 9.72183 8.5249 12 8.5249C14.2782 8.5249 16.125 10.4333 16.125 12.7874C16.125 15.1415 14.2782 17.0499 12 17.0499C9.72183 17.0499 7.875 15.1415 7.875 12.7874Z" fill="#070707" fill-opacity="0.43"/>
</svg>
