<svg 
width="current" 
height="current" viewBox="0 0 14 14" fill="none" xmlns="http://www.w3.org/2000/svg">
<rect x="0.05" y="0.05" width="13.9" height="13.9" rx="6.95" 
fill="white"/>
<rect x="0.05" y="0.05" width="13.9" height="13.9" rx="6.95" stroke="black" stroke-width="0.1"/>
<path fill-rule="evenodd" clip-rule="evenodd" d="M11.3499 2.64986C11.5777 2.87766 11.5777 3.24701 11.3499 3.47482L3.47494 11.3498C3.24713 11.5776 2.87779 11.5776 2.64998 11.3498C2.42217 11.122 2.42217 10.7527 2.64998 10.5249L10.525 2.64986C10.7528 2.42205 11.1221 2.42205 11.3499 2.64986Z" 
fill="currentColor"/>
<path fill-rule="evenodd" clip-rule="evenodd" d="M2.64998 2.64986C2.87779 2.42205 3.24713 2.42205 3.47494 2.64986L11.3499 10.5249C11.5777 10.7527 11.5777 11.122 11.3499 11.3498C11.1221 11.5776 10.7528 11.5776 10.525 11.3498L2.64998 3.47482C2.42217 3.24701 2.42217 2.87766 2.64998 2.64986Z" 
fill="currentColor"/>
</svg>
