<svg width="20" height="20" viewBox="0 0 20 20" fill="none" xmlns="http://www.w3.org/2000/svg">
<path d="M4.82265 12.3892C4.76691 12.4438 4.70096 12.4869 4.62857 12.516C4.55618 12.545 4.47877 12.5596 4.40076 12.5588C4.32275 12.558 4.24567 12.5418 4.17391 12.5112C4.10215 12.4805 4.03712 12.4361 3.98254 12.3804C3.92796 12.3246 3.8849 12.2587 3.8558 12.1863C3.82671 12.1139 3.81216 12.0365 3.81298 11.9585C3.81381 11.8805 3.82999 11.8034 3.8606 11.7316C3.89122 11.6598 3.93566 11.5948 3.99141 11.5402L9.99123 5.66572C10.0469 5.6111 10.1129 5.568 10.1853 5.53888C10.2577 5.50976 10.3351 5.4952 10.4131 5.49602C10.4911 5.49685 10.5682 5.51304 10.64 5.54368C10.7118 5.57432 10.7768 5.6188 10.8313 5.67459L16.7059 11.6744C16.8161 11.787 16.8771 11.9387 16.8754 12.0963C16.8738 12.2538 16.8096 12.4043 16.697 12.5145C16.5844 12.6247 16.4327 12.6857 16.2751 12.6841C16.1176 12.6824 15.9671 12.6182 15.8569 12.5056L10.398 6.92958L4.82265 12.3892Z" fill="#272727"/>
</svg>
