<svg width="current" height="current" viewBox="0 0 975 415" fill="none" xmlns="http://www.w3.org/2000/svg">
<g clip-path="url(#clip0_630_5157)">
<path d="M312.973 331.077H268.503V409.125H160.682V331.077H0V251.35L167.814 5.87462H268.503V249.671H312.973V331.077ZM160.682 249.671V202.674C160.682 193.862 161.102 182.113 161.521 167.007C162.36 151.901 162.78 144.348 163.199 143.509H160.262C153.969 157.776 146.837 170.784 138.866 183.372L94.3954 249.671H160.682Z" fill="#873EAC"/>
<path d="M632.659 208.129C632.659 279.464 620.493 331.916 596.999 365.066C573.085 398.215 536.586 415 487.081 415C438.834 415 402.754 397.796 378.002 362.968C353.668 328.14 341.502 276.527 341.502 208.129C341.502 136.375 353.249 83.9231 377.582 50.3539C401.495 16.7846 437.995 0 487.5 0C535.327 0 571.827 17.6239 596.16 52.452C620.493 87.2801 632.659 138.893 632.659 208.129ZM449.742 208.129C449.742 253.868 452.679 285.339 458.133 302.123C464.006 319.328 473.236 327.72 486.661 327.72C500.086 327.72 509.736 318.908 515.609 301.284C521.063 283.66 524 252.609 524 208.129C524 163.231 521.063 132.179 515.609 114.135C509.736 96.092 500.506 87.2801 487.081 87.2801C473.656 87.2801 464.006 96.092 458.552 113.296C452.679 130.501 449.742 161.972 449.742 208.129Z" fill="#873EAC"/>
<path d="M975 331.077H930.529V409.125H822.709V331.077H662.027V251.35L829.841 5.87462H930.529V249.671H975V331.077ZM823.128 249.671V202.674C823.128 193.862 823.548 182.113 823.967 167.007C824.807 151.901 825.226 144.348 825.646 143.509H822.709C816.416 157.776 809.284 170.784 801.313 183.372L756.422 250.091H823.128V249.671Z" fill="#873EAC"/>
<g clip-path="url(#clip1_630_5157)">
<path d="M538.575 108.889C549.343 102.344 562.466 102.957 573.654 108.378C584.842 113.798 594.264 123.719 602.087 134.867C607.639 142.947 612.687 152.152 613.864 162.584C615.631 179.05 607.387 194.698 597.376 205.846C588.543 215.665 577.692 223.336 565.915 225.483C552.792 227.938 542.108 222.62 534.032 213.21C524.863 202.471 519.143 186.312 517.124 170.152C516.535 165.754 516.283 161.357 516.283 157.061C516.367 137.731 524.358 117.583 538.575 108.889Z" fill="white"/>
<path d="M594.011 191.732C598.386 184.164 601.162 175.266 600.152 166.164C599.227 157.47 595.021 149.902 590.394 143.254C583.917 134.049 576.093 125.867 566.84 121.367C557.587 116.867 546.735 116.355 537.818 121.776C535.126 123.412 532.687 125.56 530.583 128.015C533.612 122.492 537.65 117.787 542.529 114.821C551.446 109.401 562.297 109.912 571.551 114.412C580.804 118.912 588.628 127.094 595.105 136.299C599.732 142.947 603.854 150.618 604.779 159.209C606.209 171.175 600.994 182.834 594.011 191.732Z" fill="#E6E6E6"/>
<path d="M559.69 228.552C549.595 228.552 540.342 223.949 532.687 214.949C523.77 204.415 517.377 188.255 515.189 170.459C514.601 166.164 514.348 161.561 514.348 157.061C514.348 135.481 523.77 115.23 537.65 106.741C548.333 100.298 561.709 99.9913 574.327 106.128C584.59 111.139 594.432 120.242 603.517 133.333C608.144 139.981 614.369 150.209 615.715 162.277C617.313 177.312 611.088 193.778 598.554 207.687C588.46 218.835 577.271 225.892 566.083 227.938C564.064 228.347 561.877 228.552 559.69 228.552ZM539.501 111.037C526.882 118.708 518.386 137.22 518.386 157.061C518.386 161.357 518.638 165.652 519.143 169.743C521.162 186.516 527.135 201.755 535.463 211.472C543.959 221.392 554.054 225.279 565.663 223.131C578.786 220.676 589.469 211.369 596.031 204.006C607.555 191.221 613.36 176.187 611.93 162.788C610.752 151.947 604.948 142.436 600.657 136.299C591.993 123.924 582.655 115.23 572.981 110.526C561.541 105.003 549.006 105.207 539.501 111.037Z" fill="#333333"/>
<path d="M389.091 106.537C396.998 102.344 406.083 102.753 414.664 104.389C426.609 106.741 438.386 111.446 448.06 120.242C457.65 129.038 464.885 142.436 465.894 156.959C467.156 176.289 457.145 195.005 443.518 205.028C429.217 215.665 410.037 220.881 394.222 215.563C383.623 211.983 374.622 203.596 369.658 188.971C368.649 186.107 367.892 183.141 367.303 180.073C365.116 169.027 365.452 157.266 367.219 146.118C369.827 129.958 376.641 113.287 389.091 106.537Z" fill="white"/>
<path d="M445.789 192.448C452.434 183.755 456.556 172.402 455.799 160.641C454.958 148.265 448.817 137.015 440.741 129.549C432.582 122.083 422.571 118.094 412.561 116.151C405.326 114.719 397.587 114.412 390.941 117.992C389.259 118.912 387.745 119.935 386.314 121.265C388.838 117.685 391.867 114.719 395.484 112.776C402.214 109.196 409.869 109.503 417.103 110.935C427.198 112.878 437.208 116.867 445.284 124.333C453.444 131.799 459.501 143.049 460.342 155.425C461.351 169.743 455.042 183.55 445.789 192.448Z" fill="#E6E6E6"/>
<path d="M407.682 220.063C402.803 220.063 398.092 219.347 393.717 217.813C381.604 213.722 372.687 204.005 367.808 189.891C366.798 186.925 365.957 183.755 365.368 180.584C363.265 170.05 363.265 158.288 365.284 145.606C368.565 125.458 376.977 110.423 388.334 104.287C397.587 99.3776 408.018 100.605 415 101.934C428.88 104.594 440.405 110.117 449.238 118.196C460.09 128.219 466.903 142.231 467.829 156.652C469.007 175.573 459.669 195.823 444.527 206.971C433.086 215.563 419.879 220.063 407.682 220.063ZM389.848 108.685C379.669 114.208 372.098 128.015 369.07 146.629C367.135 158.595 367.219 169.641 369.154 179.562C369.743 182.425 370.5 185.391 371.425 188.153C375.799 200.937 383.875 209.631 394.727 213.313C408.859 218.12 427.618 214.028 442.424 203.085C456.388 192.755 464.969 174.346 463.875 157.163C463.034 144.277 456.641 131.185 446.798 122.083C438.47 114.412 427.534 109.298 414.327 106.741C407.766 105.514 398.176 104.287 389.848 108.685Z" fill="#333333"/>
<path d="M517.208 170.152C519.984 168.823 522.928 168.311 525.873 168.72C535.126 170.255 542.445 180.994 542.613 192.346C542.697 200.119 539.248 208.403 534.032 213.313C524.947 202.471 519.143 186.414 517.208 170.152Z" fill="#333333"/>
<path d="M367.303 180.175C369.658 177.107 372.771 174.857 376.136 174.039C385.221 171.686 395.147 178.743 398.428 189.38C401.036 197.869 399.353 208.915 394.222 215.665C383.622 212.085 374.621 203.699 369.658 189.073C368.649 186.107 367.892 183.141 367.303 180.175Z" fill="#333333"/>
<path d="M511.656 363.044C510.479 373.476 508.544 384.215 502.15 393.215C499.627 396.795 496.43 399.863 492.729 402.42C480.952 410.909 464.38 414.386 449.069 411.932C430.394 408.966 402.382 393.011 400.868 375.113C400.699 373.374 400.783 371.635 400.952 369.794C402.129 359.567 408.439 347.6 411.719 338.702C416.598 325.304 422.319 312.111 428.712 299.224C430.899 294.826 433.17 290.531 435.778 286.235C440.321 278.871 445.873 272.019 453.444 266.803C465.305 258.621 483.391 255.757 495.673 263.428C504.59 269.053 508.375 278.36 510.31 287.871C510.815 290.531 511.236 293.292 511.488 295.849C514.18 318.247 514.264 340.748 511.656 363.044Z" fill="#333333"/>
<path d="M492.813 402.318C481.036 410.807 464.464 414.284 449.153 411.829C430.478 408.863 402.466 392.908 400.952 375.01C400.783 373.272 400.867 371.533 401.036 369.692C409.364 366.215 417.944 363.658 424.169 362.021C443.097 357.317 465.473 358.953 479.69 370.612C489.616 378.794 493.99 390.761 492.813 402.318Z" fill="#ED373E"/>
<path d="M510.394 287.974C485.578 287.462 460.762 286.951 435.862 286.337C439.227 280.814 443.181 275.701 448.144 271.201C449.827 269.666 451.677 268.235 453.612 266.905C465.473 258.723 483.559 255.859 495.841 263.53C500.047 266.189 503.076 269.564 505.347 273.553C507.871 277.951 509.385 282.962 510.394 287.974Z" fill="white"/>
<path d="M655 125.049C638.849 104.185 617.482 89.3546 594.601 82.9112C583.076 79.7407 571.299 78.5134 559.942 74.7292C548.586 70.945 537.313 63.9902 530.752 52.1263C524.19 40.2623 523.77 22.5686 532.182 12.5456C544.632 29.5234 563.896 38.4214 581.982 44.1488C600.153 49.8762 619.164 55.0923 633.801 69.4109C647.345 82.6044 654.411 103.878 655 125.049Z" fill="#333333"/>
<path d="M503.749 273.553C485.074 267.928 465.473 267.11 446.546 271.303C448.228 269.769 450.079 268.337 452.014 267.007C463.875 258.825 481.961 255.961 494.243 263.632C498.449 266.189 501.478 269.666 503.749 273.553Z" fill="#E6E6E6"/>
<path d="M335 118.401C351.151 97.6389 372.518 82.7067 395.4 76.3656C406.924 73.1951 418.701 71.9677 430.058 68.1835C441.414 64.3994 452.687 57.4446 459.248 45.5806C465.81 33.7167 466.23 16.023 457.818 6C445.368 22.9777 426.104 31.8757 408.018 37.6032C389.848 43.3306 370.836 48.5466 356.199 62.8652C342.655 76.0588 335.589 97.3321 335 118.401Z" fill="#333333"/>
<path d="M458.659 415C455.378 415 452.098 414.795 448.901 414.284C429.132 411.114 400.615 394.749 399.017 375.419C398.848 373.578 398.848 371.635 399.101 369.487C400.026 361.714 403.643 353.226 406.84 345.657C408.018 342.896 409.111 340.237 410.037 337.782C415 324.384 420.72 310.986 427.113 298.099C429.553 293.088 431.908 288.792 434.264 284.905C439.816 276.007 445.62 269.564 452.602 264.859C464.379 256.78 483.223 252.995 496.682 261.382C504.842 266.496 509.805 274.678 512.329 287.36C512.834 290.019 513.254 292.781 513.591 295.644C516.199 318.145 516.283 340.85 513.675 363.249C512.497 373.987 510.394 385.238 503.749 394.647C501.057 398.431 497.776 401.704 493.906 404.363C484.316 411.216 471.446 415 458.659 415ZM479.017 261.484C470.1 261.484 461.015 264.553 454.537 269.053C448.06 273.451 442.676 279.485 437.46 287.871C435.189 291.553 432.918 295.747 430.478 300.656C424.169 313.44 418.533 326.634 413.654 339.827C412.729 342.282 411.551 345.043 410.373 347.907C407.345 355.066 403.896 363.249 403.055 370.306C402.802 372.044 402.802 373.578 402.97 375.01C404.4 391.579 431.908 406.92 449.49 409.682C464.379 412.034 480.615 408.557 491.887 400.477C495.42 398.022 498.365 395.056 500.804 391.783C506.44 383.806 508.543 374.499 509.805 362.942C512.329 341.055 512.245 318.759 509.721 296.667C509.469 294.008 509.048 291.349 508.543 288.894C506.272 277.746 501.982 270.382 494.916 265.984C490.205 262.814 484.653 261.484 479.017 261.484Z" fill="#333333"/>
<path d="M402.129 204.312H395.736C392.708 204.312 390.184 201.244 390.184 197.562C390.184 193.88 392.708 190.812 395.736 190.812H402.129C405.158 190.812 407.681 193.88 407.681 197.562C407.681 201.346 405.158 204.312 402.129 204.312Z" fill="white"/>
<path d="M541.856 201.346H535.463C532.434 201.346 529.911 198.278 529.911 194.596C529.911 190.914 532.434 187.846 535.463 187.846H541.856C544.884 187.846 547.408 190.914 547.408 194.596C547.408 198.278 544.884 201.346 541.856 201.346Z" fill="white"/>
<path opacity="0.23" d="M489.196 396.795C486.083 381.454 475.652 368.669 463.118 364.68C455.631 362.328 447.808 362.942 440.152 364.067C428.544 365.703 417.019 368.362 405.747 372.147C420.804 370.101 435.526 368.567 450.499 371.328C465.473 374.09 480.195 381.965 489.196 396.795Z" fill="white"/>
</g>
</g>
<defs>
<clipPath id="clip0_630_5157">
<rect width="975" height="415" fill="white"/>
</clipPath>
<clipPath id="clip1_630_5157">
<rect width="320" height="409" fill="white" transform="translate(335 6)"/>
</clipPath>
</defs>
</svg>
