<svg width="20" height="19" viewBox="0 0 20 19" fill="none" xmlns="http://www.w3.org/2000/svg">
<path d="M17.342 9.5C17.342 9.65747 17.2795 9.8085 17.1681 9.91985C17.0568 10.0312 16.9058 10.0938 16.7483 10.0938H10.8108V16.0312C10.8108 16.1887 10.7482 16.3397 10.6369 16.4511C10.5255 16.5624 10.3745 16.625 10.217 16.625C10.0596 16.625 9.90855 16.5624 9.7972 16.4511C9.68585 16.3397 9.62329 16.1887 9.62329 16.0312V10.0938H3.68579C3.52832 10.0938 3.3773 10.0312 3.26595 9.91985C3.1546 9.8085 3.09204 9.65747 3.09204 9.5C3.09204 9.34253 3.1546 9.19151 3.26595 9.08016C3.3773 8.96881 3.52832 8.90625 3.68579 8.90625H9.62329V2.96875C9.62329 2.81128 9.68585 2.66026 9.7972 2.54891C9.90855 2.43756 10.0596 2.375 10.217 2.375C10.3745 2.375 10.5255 2.43756 10.6369 2.54891C10.7482 2.66026 10.8108 2.81128 10.8108 2.96875V8.90625H16.7483C16.9058 8.90625 17.0568 8.96881 17.1681 9.08016C17.2795 9.19151 17.342 9.34253 17.342 9.5Z" fill="#272727"/>
</svg>
