<svg width="18" height="18" viewBox="0 0 26 26" fill="none" xmlns="http://www.w3.org/2000/svg">
<path d="M21.75 13H20.0227L21.7039 8.85935C21.7384 8.78268 21.757 8.69984 21.7588 8.61579C21.7605 8.53173 21.7452 8.4482 21.7139 8.37018C21.6826 8.29216 21.6358 8.22127 21.5765 8.16173C21.5171 8.1022 21.4464 8.05525 21.3684 8.0237C21.2905 7.99216 21.207 7.97665 21.123 7.97812C21.0389 7.97959 20.956 7.99801 20.8792 8.03226C20.8025 8.06652 20.7334 8.11591 20.6761 8.17748C20.6189 8.23905 20.5747 8.31154 20.5461 8.3906L18.6711 13H15.4516L13.5766 8.3906C13.5297 8.27549 13.4496 8.17696 13.3465 8.10759C13.2434 8.03822 13.1219 8.00117 12.9977 8.00117C12.8734 8.00117 12.7519 8.03822 12.6488 8.10759C12.5457 8.17696 12.4656 8.27549 12.4187 8.3906L10.5437 13H7.32656L5.45156 8.3906C5.38526 8.24317 5.26441 8.12715 5.11439 8.06693C4.96437 8.0067 4.79685 8.00694 4.647 8.06761C4.49716 8.12828 4.37665 8.24464 4.31078 8.39228C4.24491 8.53991 4.23881 8.70732 4.29375 8.85935L5.975 13H4.25C4.08424 13 3.92527 13.0658 3.80806 13.183C3.69085 13.3002 3.625 13.4592 3.625 13.625C3.625 13.7907 3.69085 13.9497 3.80806 14.0669C3.92527 14.1841 4.08424 14.25 4.25 14.25H6.48516L8.36016 18.8594C8.407 18.9745 8.48709 19.073 8.59021 19.1424C8.69333 19.2117 8.81478 19.2488 8.93906 19.2488C9.06334 19.2488 9.1848 19.2117 9.28791 19.1424C9.39103 19.073 9.47113 18.9745 9.51797 18.8594L11.393 14.25H14.6148L16.4898 18.8594C16.5367 18.9745 16.6168 19.073 16.7199 19.1424C16.823 19.2117 16.9445 19.2488 17.0688 19.2488C17.193 19.2488 17.3145 19.2117 17.4176 19.1424C17.5207 19.073 17.6008 18.9745 17.6477 18.8594L19.5227 14.25H21.75C21.9158 14.25 22.0747 14.1841 22.1919 14.0669C22.3092 13.9497 22.375 13.7907 22.375 13.625C22.375 13.4592 22.3092 13.3002 22.1919 13.183C22.0747 13.0658 21.9158 13 21.75 13ZM8.9375 16.9648L7.83438 14.25H10.0406L8.9375 16.9648ZM11.8969 13L13 10.2859L14.1031 13H11.8969ZM17.0625 16.9648L15.9594 14.25H18.1656L17.0625 16.9648Z" fill="#272727"/>
<circle cx="13" cy="13" r="12.4" stroke="#272727" stroke-width="1.2"/>
</svg>
