<svg width="24" height="24" viewBox="0 0 22 22" fill="none" xmlns="http://www.w3.org/2000/svg">
<g clip-path="url(#clip0_222_4356)">
<path d="M16.2502 11.4608C16.1584 12.4538 15.7858 13.4001 15.1758 14.189C14.5659 14.9778 13.7439 15.5767 12.806 15.9155C11.8681 16.2542 10.8532 16.3189 9.8799 16.1019C8.90661 15.8849 8.01527 15.3952 7.31015 14.69C6.60504 13.9849 6.11532 13.0936 5.8983 12.1203C5.68128 11.147 5.74594 10.132 6.0847 9.19417C6.42347 8.2563 7.02234 7.4343 7.81123 6.82436C8.60012 6.21441 9.5464 5.84176 10.5394 5.75C9.95801 6.53649 9.67827 7.50551 9.751 8.48082C9.82373 9.45614 10.2441 10.373 10.9357 11.0645C11.6272 11.7561 12.544 12.1765 13.5194 12.2492C14.4947 12.3219 15.4637 12.0422 16.2502 11.4608Z" stroke="#873EAC" stroke-width="2" stroke-linecap="round" stroke-linejoin="round"/>
</g>
<circle cx="11" cy="11" r="10" stroke="#873EAC" stroke-width="2"/>
<defs>
<clipPath id="clip0_222_4356">
<rect width="14" height="14" fill="white" transform="translate(4 4)"/>
</clipPath>
</defs>
</svg>
