<svg width="32" height="32" viewBox="0 0 32 32" fill="none" xmlns="http://www.w3.org/2000/svg">
<path d="M28.9738 23.4162C29.6791 21.9826 30.0305 20.4009 29.9988 18.8035C29.9671 17.2061 29.5531 15.6396 28.7915 14.2351C28.0299 12.8306 26.9428 11.6291 25.6214 10.7311C24.2999 9.83305 22.7825 9.26475 21.1963 9.07375C20.6702 7.8474 19.904 6.73875 18.9428 5.81311C17.9817 4.88747 16.8449 4.16357 15.5997 3.68405C14.3544 3.20452 13.0257 2.97909 11.692 3.02102C10.3582 3.06295 9.04632 3.3714 7.83362 3.9282C6.62091 4.485 5.53191 5.27887 4.63078 6.26306C3.72964 7.24725 3.0346 8.40184 2.5866 9.65881C2.1386 10.9158 1.9467 12.2497 2.02222 13.582C2.09773 14.9143 2.43913 16.218 3.02629 17.4162L2.06879 20.7687C1.98335 21.0687 1.97961 21.386 2.05795 21.6878C2.13629 21.9897 2.29388 22.2651 2.51439 22.4856C2.73491 22.7062 3.01035 22.8637 3.3122 22.9421C3.61406 23.0204 3.93137 23.0167 4.23129 22.9312L7.58379 21.9737C8.59543 22.4704 9.68362 22.7929 10.8025 22.9275C11.3359 24.1771 12.1183 25.3049 13.1021 26.2421C14.0858 27.1793 15.2502 27.9062 16.5242 28.3784C17.7981 28.8507 19.155 29.0583 20.5119 28.9888C21.8688 28.9192 23.1973 28.5738 24.4163 27.9737L27.7688 28.9312C28.0687 29.0167 28.386 29.0204 28.6879 28.9421C28.9897 28.8637 29.2652 28.7062 29.4857 28.4856C29.7062 28.2651 29.8638 27.9897 29.9421 27.6878C30.0205 27.386 30.0167 27.0687 29.9313 26.7687L28.9738 23.4162ZM7.69129 19.9037C7.59835 19.9038 7.50584 19.9164 7.41629 19.9412L4.11504 20.885L5.05879 17.5837C5.12952 17.3322 5.09901 17.063 4.97379 16.8337C4.05431 15.1457 3.77392 13.1828 4.18399 11.3048C4.59406 9.42676 5.66714 7.75941 7.20659 6.60824C8.74603 5.45708 10.6487 4.8992 12.5661 5.03683C14.4834 5.17446 16.2869 5.99839 17.6462 7.35763C19.0054 8.71687 19.8293 10.5204 19.967 12.4377C20.1046 14.355 19.5467 16.2578 18.3955 17.7972C17.2444 19.3367 15.577 20.4097 13.699 20.8198C11.821 21.2299 9.85813 20.9495 8.17004 20.03C8.02369 19.9481 7.85898 19.9047 7.69129 19.9037ZM26.9413 23.5837L27.885 26.885L24.5838 25.9412C24.3323 25.8705 24.0631 25.901 23.8338 26.0262C21.9904 27.0291 19.827 27.2683 17.8091 26.6923C15.7912 26.1163 14.08 24.7711 13.0438 22.9462C14.4131 22.8036 15.7382 22.3796 16.9359 21.7007C18.1335 21.0218 19.178 20.1027 20.0037 19.001C20.8294 17.8994 21.4185 16.639 21.7341 15.299C22.0497 13.9589 22.0849 12.5681 21.8375 11.2137C23.0358 11.4961 24.1528 12.0513 25.1014 12.8359C26.05 13.6206 26.8048 14.6136 27.3069 15.7377C27.809 16.8617 28.0449 18.0865 27.9962 19.3167C27.9475 20.5468 27.6156 21.7491 27.0263 22.83C26.9001 23.0603 26.8695 23.3311 26.9413 23.5837Z" fill="#272727"/>
</svg>
